<svg id="Layer_1" data-name="Layer 1" xmlns="http://www.w3.org/2000/svg" width="54.88" height="54.84" viewBox="0 0 54.88 54.84"><defs><style>.cls-1{fill:#ffaf20;}</style></defs><path class="cls-1" d="M38,59V53.62H22.59V59ZM18.41,59V53.62H12.59A4.41,4.41,0,0,1,9.36,52.5a4.51,4.51,0,0,1-1.14-3.34V43.31H2.84v6.25c0,3.13.81,5.48,2.41,7S9.23,59,12.38,59Zm29.78,0c3.14,0,5.52-.79,7.12-2.38s2.41-3.92,2.41-7V43.31H52.38v5.85A4,4,0,0,1,48,53.62H42.19V59ZM29.62,46.44A3.41,3.41,0,0,0,32,45.53a2.89,2.89,0,0,0,1-2.25A2.92,2.92,0,0,0,32,41a3.5,3.5,0,0,0-4.72,0,3,3,0,0,0-1,2.27,2.92,2.92,0,0,0,1,2.23A3.29,3.29,0,0,0,29.62,46.44ZM8.22,39.12V23.94H2.84V39.12Zm49.5,0V23.94H52.38V39.12Zm-28-1.62a2.62,2.62,0,0,0,1.84-.63,2.06,2.06,0,0,0,.72-1.53v-.15a.58.58,0,0,1,0-.19,3.16,3.16,0,0,1,.8-2.06,11,11,0,0,1,2.23-1.85,15.9,15.9,0,0,0,3.52-2.95A6.16,6.16,0,0,0,40.16,24a6.58,6.58,0,0,0-1.32-4.17,8.21,8.21,0,0,0-3.48-2.6,12.54,12.54,0,0,0-4.77-.89,11.69,11.69,0,0,0-6.25,1.52,6.59,6.59,0,0,0-3.06,3.58,3.55,3.55,0,0,0-.22.75A4.93,4.93,0,0,0,21,23a2,2,0,0,0,.69,1.61,2.43,2.43,0,0,0,1.59.58A2.24,2.24,0,0,0,25,24.58c.33-.39.74-.85,1.22-1.39A5.64,5.64,0,0,1,28,21.39a4.39,4.39,0,0,1,2.4-.64,4.45,4.45,0,0,1,3,1,3.23,3.23,0,0,1,1.12,2.56,3.16,3.16,0,0,1-.94,2.36,24.11,24.11,0,0,1-2.84,2.27,12,12,0,0,0-2.64,2.39,5.2,5.2,0,0,0-1,3.39V35C27,36.68,27.92,37.5,29.69,37.5Zm28-17.75V13.53c0-3.1-.8-5.45-2.41-7s-4-2.38-7.12-2.38h-6V9.47H48a4.47,4.47,0,0,1,3.25,1.12,4.48,4.48,0,0,1,1.16,3.35v5.81ZM38,9.47V4.12H22.59V9.47ZM8.22,19.75V13.94a4.52,4.52,0,0,1,1.14-3.35,4.41,4.41,0,0,1,3.23-1.12h5.82V4.12h-6q-4.73,0-7.13,2.36c-1.6,1.58-2.41,3.93-2.41,7v6.22Z" transform="translate(-2.84 -4.12)"/></svg>