<svg id="Layer_1" data-name="Layer 1" xmlns="http://www.w3.org/2000/svg" xmlns:xlink="http://www.w3.org/1999/xlink" width="119" height="47" viewBox="0 0 119 47"><defs><style>.cls-1{fill:#fff;}.cls-1,.cls-2{fill-rule:evenodd;}.cls-2{fill:#6b0000;}.cls-3{mask:url(#mask);}.cls-4{mask:url(#mask-2);}</style><mask id="mask" x="101.03" y="0.33" width="17.89" height="14.85" maskUnits="userSpaceOnUse"><g id="mask-3"><polygon id="path-2" class="cls-1" points="101.03 0.33 118.92 0.33 118.92 15.18 101.03 15.18 101.03 0.33"/></g></mask><mask id="mask-2" x="0" y="0" width="119" height="47" maskUnits="userSpaceOnUse"><g id="mask-5"><polygon id="path-4" class="cls-1" points="0 47 119 47 119 0 0 0 0 47"/></g></mask></defs><g id="Page-1"><g id="First-View"><g id="Group-16"><path id="Fill-1" class="cls-2" d="M91,10.87c0,3.8,2.78,5.13,5.7,5.13,2.65,0,3.63-.95,3.63-.95l0-3.76a9.29,9.29,0,0,1-2.15.3c-.92,0-1.86-.34-1.86-1.38V9.45L100,8.6l1-4.43A6.68,6.68,0,0,1,97.49,3a5.74,5.74,0,0,0-3.15-1,3.46,3.46,0,0,0-2.44.86V6.25h.89V5.8l1,.4A4.84,4.84,0,0,0,91,10.87"/><g id="Group-5"><g class="cls-3"><path id="Fill-3" class="cls-2" d="M115.17,5.72a1.12,1.12,0,0,1,.87-.47.58.58,0,0,1,.57.27,4.52,4.52,0,0,1-1.44.2m1-2.68a5.94,5.94,0,0,0-3.26,1.36V.33L109,1.52l.31,4.19h-1.48a.79.79,0,0,1-.77-.53,5.69,5.69,0,0,0-.43-.95L106.5,4,103,6.17l1.31,1.92a7.88,7.88,0,0,1-3.1,4.18L101,13.94l3.78,1.18a1.29,1.29,0,0,0,.35.05c.41,0,.92-.21,1.36-1.09a13.17,13.17,0,0,0,1.23-3.53v0a1.6,1.6,0,0,0,1,.28h9a1.14,1.14,0,0,0,1.2-1.21V6.11c0-2.3-1.48-3.07-2.74-3.07"/></g></g><path id="Fill-6" class="cls-2" d="M94.87,26.26a1,1,0,0,1,.84-.51L95.92,27Zm8.56-.72V23.8l-3.33.55v1.19H98.76V21.12l-3.63,1.1.11.69A4.14,4.14,0,0,0,92.47,25L91,28.28l5,3.72,1-1.23A1.8,1.8,0,0,0,98,31h2.67a1.68,1.68,0,0,0,1-.3,1.68,1.68,0,0,0,1,.3h7.7a1.66,1.66,0,0,0,1-.3,1.71,1.71,0,0,0,1.06.3h3.24c1.66,0,2.2-.95,2.2-2.47v-2.9a9.76,9.76,0,0,0-.43-2.34l-3.44.89.27,1.32h-1.94a1.55,1.55,0,0,1-1-.67l-1.29-1.47,1.46-.45.57-3.95-6.75,1.8-.63,2.68a1.8,1.8,0,0,0,0,.37,1.13,1.13,0,0,0,.35.84l.87.85h-2.51Z"/><g class="cls-4"><polygon id="Fill-8" class="cls-2" points="100 23 104 23 104 21 100 21 100 23"/></g><g class="cls-4"><path id="Fill-10" class="cls-2" d="M117,21a1,1,0,1,0-1,1,1,1,0,0,0,1-1"/></g><g class="cls-4"><polygon id="Fill-11" class="cls-2" points="95 39 99 39 99 37 95 37 95 39"/></g><g class="cls-4"><polygon id="Fill-12" class="cls-2" points="114 38 118 38 118 36 114 36 114 38"/></g><g class="cls-4"><path id="Fill-13" class="cls-2" d="M115.43,40.81l.25,1.19h-2.41V40.38l-2.53.41V42h-.46V40.52l-2.52.41V42h-.47V40.52l-2.52.41V42h-1.71V40.6l-3.07.33V42H95.1V40.51l-3.1.42v3.83A2,2,0,0,0,94,47h6.55a1.6,1.6,0,0,0,1-.28,1.55,1.55,0,0,0,1,.28h1.86a1.57,1.57,0,0,0,1-.28,1.55,1.55,0,0,0,1,.28H108a1.57,1.57,0,0,0,1-.28,1.57,1.57,0,0,0,1,.28h1.7a1.55,1.55,0,0,0,1-.28,1.6,1.6,0,0,0,1,.28H117c1.52,0,2-.86,2-2.24V42.12a8.91,8.91,0,0,0-.39-2.12Z"/></g><g class="cls-4"><polygon id="Fill-14" class="cls-2" points="38.75 46.77 45 47 35 32 38.75 46.77"/></g><g class="cls-4"><polygon id="Fill-15" class="cls-2" points="79 0 39.5 8.29 0 0 0 19.58 14 19.58 10.92 38.64 29.09 45 24.66 19.58 34.62 19.58 44.55 33.79 41.31 19.58 54.34 19.58 49.91 45 68.08 38.64 65 19.58 79 19.58 79 0"/></g></g></g></g></svg>