<?xml version="1.0" standalone="no"?>
<!DOCTYPE svg PUBLIC "-//W3C//DTD SVG 20010904//EN"
 "http://www.w3.org/TR/2001/REC-SVG-20010904/DTD/svg10.dtd">
<svg version="1.0" xmlns="http://www.w3.org/2000/svg"
 width="1000.000000pt" height="1000.000000pt" viewBox="0 0 1000.000000 1000.000000"
 preserveAspectRatio="xMidYMid meet">
<metadata>
Created by potrace 1.14, written by Peter Selinger 2001-2017
</metadata>
<g transform="translate(0.000000,1000.000000) scale(0.100000,-0.100000)"
fill="#ffffff" stroke="none">
<path d="M7221 9844 c-350 -73 -642 -321 -840 -712 -24 -48 -865 -2144 -963
-2402 -27 -71 -45 -112 -136 -305 -41 -88 -90 -194 -109 -235 -19 -41 -49
-104 -65 -140 -17 -36 -46 -99 -65 -140 l-35 -75 -29 60 c-48 100 -149 317
-149 320 0 2 -32 69 -70 150 -39 81 -70 148 -70 150 0 2 -18 41 -39 87 -21 45
-62 139 -91 208 -62 149 -128 293 -222 490 -56 116 -71 141 -78 125 -129 -328
-294 -725 -335 -808 -193 -385 -477 -664 -822 -806 -123 -51 -316 -94 -425
-94 -16 -1 -28 -4 -28 -8 0 -8 95 -261 110 -294 5 -11 23 -58 40 -105 17 -47
36 -96 42 -110 5 -14 50 -131 98 -260 48 -129 94 -248 100 -265 18 -43 25 -63
48 -125 49 -132 164 -437 172 -455 22 -49 163 -412 167 -430 2 -12 -37 -127
-92 -265 -53 -135 -114 -290 -135 -345 -21 -55 -91 -233 -156 -395 -64 -162
-141 -365 -170 -450 -103 -301 -137 -565 -108 -834 34 -313 154 -567 374 -786
208 -208 482 -351 810 -423 92 -20 126 -21 1010 -23 526 -2 949 1 995 7 232
27 502 128 706 264 311 207 509 512 575 885 21 115 23 355 5 485 -30 213 -71
350 -208 705 -89 229 -143 365 -368 938 l-87 223 45 117 c25 64 114 293 196
507 83 215 155 399 160 410 5 11 26 65 46 120 20 55 41 109 46 120 4 11 31 81
59 155 28 74 54 144 59 155 5 11 18 45 29 75 11 30 32 84 45 120 14 36 51 133
82 215 51 134 72 191 147 385 25 63 155 385 168 415 5 11 57 137 115 280 59
143 113 274 120 290 8 17 37 86 65 155 29 69 60 143 69 165 15 33 61 146 112
273 10 24 17 42 47 112 17 41 80 201 145 370 91 235 128 410 132 635 8 349
-78 591 -286 810 -148 155 -358 265 -591 310 -98 19 -275 18 -367 -1z m-1915
-7503 c164 -36 281 -96 326 -168 51 -83 20 -219 -95 -415 -85 -145 -236 -338
-263 -338 -8 0 -14 -3 -14 -7 0 -13 -100 -65 -149 -77 -151 -40 -310 0 -424
104 -58 53 -180 220 -248 340 -92 162 -119 301 -75 375 57 96 249 178 471 201
33 4 62 8 64 10 14 12 325 -7 407 -25z"/>
<path d="M5280 1440 c-9 -6 -10 -10 -3 -10 6 0 15 5 18 10 8 12 4 12 -15 0z"/>
<path d="M1735 7903 c-9 -32 -43 -141 -76 -243 -98 -306 -114 -392 -113 -610
0 -277 77 -472 254 -650 210 -212 518 -342 805 -340 165 0 283 29 440 106 300
147 536 447 685 870 43 120 209 619 273 816 l35 108 -1143 0 -1143 0 -17 -57z"/>
</g>
</svg>
