<svg xmlns="http://www.w3.org/2000/svg" width="947" height="474"
     viewBox="0 0 947 474">
  <defs>
    <clipPath id="a">
      <rect width="947" height="474" fill="none"/>
    </clipPath>
  </defs>
  <g clip-path="url(#a)">
    <g transform="translate(0 -473.5)">
      <path
        d="M309.314-42.52h26.893c4.712,0,8.672.122,12.07.364a73.323,73.323,0,0,1,8.7,1.079,40.61,40.61,0,0,1,6.456,1.767,41.78,41.78,0,0,1,5.345,2.437,39.671,39.671,0,0,1,4.885,3.083,38.221,38.221,0,0,1,4.308,3.705,38.2,38.2,0,0,1,3.705,4.306,39.9,39.9,0,0,1,3.083,4.886,42.2,42.2,0,0,1,2.437,5.345,40.828,40.828,0,0,1,1.767,6.456,73.372,73.372,0,0,1,1.079,8.7c.24,3.4.363,7.359.363,12.071V38.569c0,4.712-.123,8.672-.363,12.071a73.372,73.372,0,0,1-1.079,8.7,40.828,40.828,0,0,1-1.767,6.456,42.2,42.2,0,0,1-2.437,5.345,39.9,39.9,0,0,1-3.083,4.886,37.909,37.909,0,0,1-8.013,8.012,39.67,39.67,0,0,1-4.885,3.083,41.78,41.78,0,0,1-5.345,2.437,40.61,40.61,0,0,1-6.456,1.767,73.323,73.323,0,0,1-8.7,1.079c-3.4.242-7.358.364-12.07.364H309.314c-4.711,0-8.672-.122-12.07-.364a73.365,73.365,0,0,1-8.7-1.079,40.657,40.657,0,0,1-6.456-1.767,41.881,41.881,0,0,1-5.345-2.437,39.786,39.786,0,0,1-4.886-3.083,38.007,38.007,0,0,1-8.013-8.012,39.9,39.9,0,0,1-3.082-4.886,41.986,41.986,0,0,1-2.437-5.345,40.828,40.828,0,0,1-1.769-6.456,73.4,73.4,0,0,1-1.077-8.7c-.242-3.4-.364-7.359-.364-12.071V11.677c0-4.712.122-8.672.364-12.071a73.4,73.4,0,0,1,1.077-8.7,40.828,40.828,0,0,1,1.769-6.456,41.986,41.986,0,0,1,2.437-5.345,39.9,39.9,0,0,1,3.082-4.886,38.213,38.213,0,0,1,3.707-4.306,38.065,38.065,0,0,1,4.306-3.705,39.786,39.786,0,0,1,4.886-3.083,41.881,41.881,0,0,1,5.345-2.437,40.657,40.657,0,0,1,6.456-1.767,73.365,73.365,0,0,1,8.7-1.079C300.642-42.4,304.6-42.52,309.314-42.52Z"
        transform="translate(150.739 448.377)" fill="none" stroke="#95b9ff" stroke-linecap="round"
        stroke-linejoin="round" stroke-width="3" stroke-dasharray="0 14" fill-rule="evenodd"/>
      <path
        d="M313.986-59.528h37.649c6.6,0,12.141.172,16.9.511a102.657,102.657,0,0,1,12.177,1.508,57.09,57.09,0,0,1,9.038,2.475,58.536,58.536,0,0,1,7.483,3.412,55.63,55.63,0,0,1,6.841,4.316,53.387,53.387,0,0,1,6.029,5.188,53.412,53.412,0,0,1,5.188,6.029,55.821,55.821,0,0,1,4.316,6.841,58.4,58.4,0,0,1,3.411,7.482,57.094,57.094,0,0,1,2.477,9.039A103,103,0,0,1,427-.55c.337,4.757.509,10.3.509,16.9V54c0,6.6-.172,12.141-.509,16.9a103,103,0,0,1-1.508,12.176,57.094,57.094,0,0,1-2.477,9.039,58.4,58.4,0,0,1-3.411,7.482,55.821,55.821,0,0,1-4.316,6.841,53.162,53.162,0,0,1-11.217,11.217,55.629,55.629,0,0,1-6.841,4.316,58.536,58.536,0,0,1-7.483,3.412,57.09,57.09,0,0,1-9.038,2.475,102.657,102.657,0,0,1-12.177,1.508c-4.757.339-10.3.511-16.9.511H313.986c-6.6,0-12.141-.172-16.9-.511a102.74,102.74,0,0,1-12.176-1.508,57.136,57.136,0,0,1-9.038-2.475,58.74,58.74,0,0,1-7.483-3.412,55.609,55.609,0,0,1-6.839-4.316,53.215,53.215,0,0,1-11.219-11.217,55.808,55.808,0,0,1-4.314-6.841,58.613,58.613,0,0,1-3.412-7.482,56.938,56.938,0,0,1-2.475-9.039A102.327,102.327,0,0,1,238.621,70.9c-.339-4.757-.511-10.3-.511-16.9V16.348c0-6.6.172-12.141.511-16.9a102.328,102.328,0,0,1,1.508-12.176,56.938,56.938,0,0,1,2.475-9.039,58.613,58.613,0,0,1,3.412-7.482,55.808,55.808,0,0,1,4.314-6.841,53.263,53.263,0,0,1,5.189-6.029,53.251,53.251,0,0,1,6.029-5.188,55.61,55.61,0,0,1,6.839-4.316,58.74,58.74,0,0,1,7.483-3.412,57.135,57.135,0,0,1,9.038-2.475,102.74,102.74,0,0,1,12.176-1.508C301.845-59.356,307.389-59.528,313.986-59.528Z"
        transform="translate(140.69 438.328)" fill="none" stroke="#95b9ff" stroke-linecap="round"
        stroke-linejoin="round" stroke-width="3" stroke-dasharray="0 14" fill-rule="evenodd" opacity="0.938"/>
      <path
        d="M318.657-76.535h48.407c8.481,0,15.61.22,21.726.655a132,132,0,0,1,15.656,1.939,73.224,73.224,0,0,1,11.62,3.183,75.272,75.272,0,0,1,9.622,4.386,71.525,71.525,0,0,1,8.794,5.549,68.3,68.3,0,0,1,7.752,6.67A68.457,68.457,0,0,1,448.9-46.4a71.53,71.53,0,0,1,5.549,8.794,75.29,75.29,0,0,1,4.386,9.622,73.228,73.228,0,0,1,3.183,11.62A131.9,131.9,0,0,1,463.961-.708c.434,6.117.655,13.246.655,21.726V69.425c0,8.481-.221,15.61-.655,21.726a131.9,131.9,0,0,1-1.939,15.656,73.228,73.228,0,0,1-3.183,11.62,75.29,75.29,0,0,1-4.386,9.622,71.529,71.529,0,0,1-5.549,8.794,68.367,68.367,0,0,1-14.423,14.423,71.525,71.525,0,0,1-8.794,5.549,75.274,75.274,0,0,1-9.622,4.386,73.225,73.225,0,0,1-11.62,3.183,132,132,0,0,1-15.656,1.939c-6.117.436-13.245.655-21.726.655H318.657c-8.481,0-15.61-.22-21.728-.655a131.923,131.923,0,0,1-15.654-1.939,73.246,73.246,0,0,1-11.621-3.183,75.271,75.271,0,0,1-9.622-4.386,71.628,71.628,0,0,1-8.793-5.549,68.424,68.424,0,0,1-14.424-14.423,71.906,71.906,0,0,1-5.549-8.794,75.514,75.514,0,0,1-4.386-9.622,73.408,73.408,0,0,1-3.182-11.62,131.89,131.89,0,0,1-1.941-15.656c-.434-6.117-.655-13.246-.655-21.726V21.018c0-8.481.221-15.61.655-21.726A131.89,131.89,0,0,1,223.7-16.364a73.408,73.408,0,0,1,3.182-11.62,75.514,75.514,0,0,1,4.386-9.622,71.907,71.907,0,0,1,5.549-8.794,68.479,68.479,0,0,1,6.672-7.752,68.3,68.3,0,0,1,7.752-6.67,71.628,71.628,0,0,1,8.793-5.549,75.269,75.269,0,0,1,9.622-4.386,73.245,73.245,0,0,1,11.621-3.183,131.925,131.925,0,0,1,15.654-1.939C303.047-76.315,310.176-76.535,318.657-76.535Z"
        transform="translate(130.64 428.279)" fill="none" stroke="#95b9ff" stroke-linecap="round"
        stroke-linejoin="round" stroke-width="3" stroke-dasharray="0 14" fill-rule="evenodd" opacity="0.88"/>
      <path
        d="M323.327-93.543h59.164c10.364,0,19.078.269,26.555.8a161.6,161.6,0,0,1,19.135,2.37,89.7,89.7,0,0,1,14.2,3.891,92.246,92.246,0,0,1,11.76,5.361,87.239,87.239,0,0,1,10.748,6.782,83.655,83.655,0,0,1,9.475,8.153,83.514,83.514,0,0,1,8.153,9.475A87.428,87.428,0,0,1,489.3-45.962a92.253,92.253,0,0,1,5.361,11.76,89.54,89.54,0,0,1,3.89,14.2A161.569,161.569,0,0,1,500.923-.866c.531,7.477.8,16.19.8,26.555V84.853c0,10.364-.269,19.078-.8,26.555a161.569,161.569,0,0,1-2.372,19.135,89.54,89.54,0,0,1-3.89,14.2A92.252,92.252,0,0,1,489.3,156.5a87.428,87.428,0,0,1-6.782,10.748A83.575,83.575,0,0,1,464.89,184.88a87.239,87.239,0,0,1-10.748,6.782,92.246,92.246,0,0,1-11.76,5.361,89.7,89.7,0,0,1-14.2,3.891,161.6,161.6,0,0,1-19.135,2.37c-7.477.531-16.19.8-26.555.8H323.327c-10.366,0-19.079-.269-26.555-.8a161.594,161.594,0,0,1-19.135-2.37,89.654,89.654,0,0,1-14.2-3.891,92.244,92.244,0,0,1-11.76-5.361,87.228,87.228,0,0,1-10.748-6.782,83.532,83.532,0,0,1-17.63-17.628,87.611,87.611,0,0,1-6.782-10.748,92.466,92.466,0,0,1-5.36-11.76,89.7,89.7,0,0,1-3.891-14.2,161.593,161.593,0,0,1-2.37-19.135c-.531-7.477-.8-16.19-.8-26.555V25.689c0-10.364.27-19.078.8-26.555A161.593,161.593,0,0,1,207.266-20a89.7,89.7,0,0,1,3.891-14.2,92.467,92.467,0,0,1,5.36-11.76A87.61,87.61,0,0,1,223.3-56.71a83.833,83.833,0,0,1,8.153-9.475,83.667,83.667,0,0,1,9.477-8.153,87.228,87.228,0,0,1,10.748-6.782,92.244,92.244,0,0,1,11.76-5.361,89.654,89.654,0,0,1,14.2-3.891,161.594,161.594,0,0,1,19.135-2.37C304.248-93.274,312.961-93.543,323.327-93.543Z"
        transform="translate(120.591 418.23)" fill="none" stroke="#95b9ff" stroke-linecap="round"
        stroke-linejoin="round" stroke-width="3" stroke-dasharray="0 14" fill-rule="evenodd" opacity="0.82"/>
      <path
        d="M328-110.551h69.922c12.25,0,22.547.318,31.383.947a190.864,190.864,0,0,1,22.612,2.8,105.991,105.991,0,0,1,16.785,4.6,109.22,109.22,0,0,1,13.9,6.335,103.442,103.442,0,0,1,12.7,8.016,99.008,99.008,0,0,1,11.2,9.634,99.016,99.016,0,0,1,9.636,11.2,103.319,103.319,0,0,1,8.015,12.7,108.991,108.991,0,0,1,6.336,13.9,105.989,105.989,0,0,1,4.6,16.785,190.825,190.825,0,0,1,2.8,22.612c.628,8.836.947,19.133.947,31.383v69.921c0,12.25-.318,22.547-.947,31.383a190.825,190.825,0,0,1-2.8,22.612,105.989,105.989,0,0,1-4.6,16.785,108.991,108.991,0,0,1-6.336,13.9,103.318,103.318,0,0,1-8.015,12.7A98.685,98.685,0,0,1,495.3,218.494a103.242,103.242,0,0,1-12.7,8.015,109.007,109.007,0,0,1-13.9,6.336,105.991,105.991,0,0,1-16.785,4.6,190.864,190.864,0,0,1-22.612,2.8c-8.836.628-19.133.947-31.383.947H328c-12.25,0-22.547-.318-31.383-.947a190.894,190.894,0,0,1-22.614-2.8,105.967,105.967,0,0,1-16.784-4.6,109.006,109.006,0,0,1-13.9-6.336,103.262,103.262,0,0,1-12.7-8.015,98.686,98.686,0,0,1-20.834-20.834,103.508,103.508,0,0,1-8.015-12.7,109,109,0,0,1-6.335-13.9,105.82,105.82,0,0,1-4.6-16.785,190.818,190.818,0,0,1-2.8-22.612c-.628-8.836-.947-19.133-.947-31.383V30.359c0-12.25.318-22.547.947-31.383a190.818,190.818,0,0,1,2.8-22.612,105.82,105.82,0,0,1,4.6-16.785,109,109,0,0,1,6.335-13.9,103.508,103.508,0,0,1,8.015-12.7,99.343,99.343,0,0,1,9.636-11.2,99.145,99.145,0,0,1,11.2-9.634,103.462,103.462,0,0,1,12.7-8.016,109.22,109.22,0,0,1,13.9-6.335A105.967,105.967,0,0,1,274-106.8a190.894,190.894,0,0,1,22.614-2.8C305.45-110.233,315.748-110.551,328-110.551Z"
        transform="translate(110.542 408.18)" fill="none" stroke="#95b9ff" stroke-linecap="round"
        stroke-linejoin="round" stroke-width="3" stroke-dasharray="0 14" fill-rule="evenodd" opacity="0.76"/>
      <path
        d="M332.668-127.559h80.679c14.133,0,26.015.367,36.211,1.093a219.82,219.82,0,0,1,26.092,3.233,122.132,122.132,0,0,1,19.367,5.3,125.854,125.854,0,0,1,16.036,7.31,119.335,119.335,0,0,1,14.655,9.249,114.218,114.218,0,0,1,12.921,11.117,114.352,114.352,0,0,1,11.119,12.921,119.469,119.469,0,0,1,9.248,14.657A125.865,125.865,0,0,1,566.3-46.64a122.247,122.247,0,0,1,5.305,19.367,219.777,219.777,0,0,1,3.233,26.092c.725,10.2,1.093,22.078,1.093,36.211v80.679c0,14.133-.367,26.015-1.093,36.211a219.777,219.777,0,0,1-3.233,26.092,122.3,122.3,0,0,1-5.305,19.367,125.865,125.865,0,0,1-7.31,16.036,119.469,119.469,0,0,1-9.248,14.657,113.936,113.936,0,0,1-24.039,24.038,119.527,119.527,0,0,1-14.655,9.249,125.86,125.86,0,0,1-16.036,7.31,122.132,122.132,0,0,1-19.367,5.3,219.819,219.819,0,0,1-26.092,3.233c-10.2.725-22.078,1.093-36.211,1.093H332.668c-14.135,0-26.015-.367-36.211-1.093a219.777,219.777,0,0,1-26.092-3.233,122.085,122.085,0,0,1-19.367-5.3,125.764,125.764,0,0,1-16.036-7.31,119.671,119.671,0,0,1-14.657-9.249,113.936,113.936,0,0,1-24.039-24.038,119.469,119.469,0,0,1-9.248-14.657,125.852,125.852,0,0,1-7.31-16.036,122.3,122.3,0,0,1-5.306-19.367,220.448,220.448,0,0,1-3.233-26.092c-.724-10.2-1.091-22.078-1.091-36.211V35.03c0-14.133.367-26.015,1.091-36.211A220.448,220.448,0,0,1,174.4-27.273a122.246,122.246,0,0,1,5.306-19.367,125.852,125.852,0,0,1,7.31-16.036,119.469,119.469,0,0,1,9.248-14.657,114.352,114.352,0,0,1,11.119-12.921,114.5,114.5,0,0,1,12.921-11.117,119.479,119.479,0,0,1,14.657-9.249A125.758,125.758,0,0,1,251-117.93a122.085,122.085,0,0,1,19.367-5.3,219.777,219.777,0,0,1,26.092-3.233C306.653-127.192,318.533-127.559,332.668-127.559Z"
        transform="translate(100.493 398.131)" fill="none" stroke="#95b9ff" stroke-linecap="round"
        stroke-linejoin="round" stroke-width="3" stroke-dasharray="0 14" fill-rule="evenodd" opacity="0.7"/>
      <path
        d="M337.339-144.567h91.436c16.018,0,29.483.417,41.039,1.238a249.782,249.782,0,0,1,29.571,3.664,138.6,138.6,0,0,1,21.949,6.013,142.709,142.709,0,0,1,18.174,8.284,135.378,135.378,0,0,1,16.61,10.482,129.382,129.382,0,0,1,14.644,12.6,129.545,129.545,0,0,1,12.6,14.644,135.177,135.177,0,0,1,10.481,16.61,142.391,142.391,0,0,1,8.285,18.174,138.552,138.552,0,0,1,6.013,21.949A249.426,249.426,0,0,1,611.8-1.339c.823,11.554,1.239,25.021,1.239,41.039v91.436c0,16.018-.417,29.485-1.239,41.039a249.426,249.426,0,0,1-3.662,29.571,138.552,138.552,0,0,1-6.013,21.949,142.391,142.391,0,0,1-8.285,18.174,135.176,135.176,0,0,1-10.481,16.61,129.091,129.091,0,0,1-27.243,27.243,135.378,135.378,0,0,1-16.61,10.482,142.712,142.712,0,0,1-18.174,8.284,138.606,138.606,0,0,1-21.949,6.013,249.8,249.8,0,0,1-29.571,3.664c-11.556.821-25.021,1.238-41.039,1.238H337.339c-16.018,0-29.485-.417-41.039-1.238a249.753,249.753,0,0,1-29.571-3.664,138.559,138.559,0,0,1-21.949-6.013,142.612,142.612,0,0,1-18.174-8.284A135.377,135.377,0,0,1,210,285.724a129.145,129.145,0,0,1-27.245-27.243,135.558,135.558,0,0,1-10.481-16.61,142.614,142.614,0,0,1-8.285-18.174,138.565,138.565,0,0,1-6.012-21.949,249.421,249.421,0,0,1-3.664-29.571c-.821-11.554-1.238-25.021-1.238-41.039V39.7c0-16.018.417-29.485,1.238-41.039a249.42,249.42,0,0,1,3.664-29.571,138.565,138.565,0,0,1,6.012-21.949,142.614,142.614,0,0,1,8.285-18.174,135.558,135.558,0,0,1,10.481-16.61,129.564,129.564,0,0,1,12.6-14.644A129.391,129.391,0,0,1,210-114.886a135.377,135.377,0,0,1,16.61-10.482,142.609,142.609,0,0,1,18.174-8.284,138.552,138.552,0,0,1,21.949-6.013,249.74,249.74,0,0,1,29.571-3.664C307.854-144.15,321.32-144.567,337.339-144.567Z"
        transform="translate(90.443 388.082)" fill="none" stroke="#95b9ff" stroke-linecap="round"
        stroke-linejoin="round" stroke-width="3" stroke-dasharray="0 14" fill-rule="evenodd" opacity="0.64"/>
      <path
        d="M342.009-161.575H444.2c17.9,0,32.953.466,45.866,1.384a278.668,278.668,0,0,1,33.05,4.095,154.775,154.775,0,0,1,24.531,6.72,159.362,159.362,0,0,1,20.312,9.259A151.287,151.287,0,0,1,586.528-128.4a144.735,144.735,0,0,1,16.367,14.082,144.6,144.6,0,0,1,14.082,16.367A151.276,151.276,0,0,1,628.692-79.39a159.476,159.476,0,0,1,9.259,20.312,154.852,154.852,0,0,1,6.72,24.533A278.688,278.688,0,0,1,648.765-1.5c.918,12.915,1.384,27.966,1.384,45.868V146.565c0,17.9-.466,32.953-1.384,45.868a278.688,278.688,0,0,1-4.095,33.049,154.851,154.851,0,0,1-6.72,24.533,159.475,159.475,0,0,1-9.259,20.312,151.276,151.276,0,0,1-11.715,18.564,144.3,144.3,0,0,1-30.449,30.449,151.291,151.291,0,0,1-18.565,11.715,159.366,159.366,0,0,1-20.312,9.259,154.775,154.775,0,0,1-24.531,6.72,278.668,278.668,0,0,1-33.05,4.095c-12.913.918-27.964,1.384-45.866,1.384H342.009c-17.9,0-32.953-.466-45.868-1.384a278.754,278.754,0,0,1-33.05-4.095,154.87,154.87,0,0,1-24.531-6.72,159.37,159.37,0,0,1-20.312-9.259,151.275,151.275,0,0,1-18.564-11.715,144.354,144.354,0,0,1-30.451-30.449,151.264,151.264,0,0,1-11.714-18.564,159.471,159.471,0,0,1-9.259-20.312,154.845,154.845,0,0,1-6.72-24.533,278.684,278.684,0,0,1-4.095-33.049c-.918-12.915-1.384-27.966-1.384-45.868V44.371c0-17.9.466-32.953,1.384-45.868a278.684,278.684,0,0,1,4.095-33.049,154.845,154.845,0,0,1,6.72-24.533,159.471,159.471,0,0,1,9.259-20.312,151.264,151.264,0,0,1,11.714-18.564,144.776,144.776,0,0,1,14.084-16.367A144.6,144.6,0,0,1,199.685-128.4a151.272,151.272,0,0,1,18.564-11.715,159.366,159.366,0,0,1,20.312-9.259,154.87,154.87,0,0,1,24.531-6.72,278.754,278.754,0,0,1,33.05-4.095C309.056-161.109,324.106-161.575,342.009-161.575Z"
        transform="translate(80.394 378.032)" fill="none" stroke="#95b9ff" stroke-linecap="round"
        stroke-linejoin="round" stroke-width="3" stroke-dasharray="0 14" fill-rule="evenodd" opacity="0.58"/>
      <path
        d="M346.68-178.583H459.629c19.789,0,36.423.515,50.7,1.53a308.052,308.052,0,0,1,36.529,4.524,171.134,171.134,0,0,1,27.113,7.428,176.132,176.132,0,0,1,22.45,10.234,167.118,167.118,0,0,1,20.519,12.948,159.953,159.953,0,0,1,18.09,15.565,159.951,159.951,0,0,1,15.565,18.09A166.994,166.994,0,0,1,663.54-87.745,176.436,176.436,0,0,1,673.774-65.3,171.164,171.164,0,0,1,681.2-38.182a307.957,307.957,0,0,1,4.526,36.529c1.015,14.273,1.529,30.907,1.529,50.694V161.993c0,19.787-.514,36.421-1.529,50.694a307.957,307.957,0,0,1-4.526,36.529,171.164,171.164,0,0,1-7.426,27.115A176.436,176.436,0,0,1,663.54,298.78,166.993,166.993,0,0,1,650.592,319.3a159.5,159.5,0,0,1-33.655,33.655A167.12,167.12,0,0,1,596.418,365.9a176.132,176.132,0,0,1-22.45,10.234,171.134,171.134,0,0,1-27.113,7.428,308.052,308.052,0,0,1-36.529,4.524c-14.273,1.015-30.907,1.53-50.7,1.53H346.68c-19.787,0-36.421-.515-50.7-1.53a307.981,307.981,0,0,1-36.528-4.524,171.154,171.154,0,0,1-27.115-7.428,176.327,176.327,0,0,1-22.45-10.234,167.238,167.238,0,0,1-20.519-12.948A159.605,159.605,0,0,1,155.718,319.3a167.171,167.171,0,0,1-12.946-20.519,175.985,175.985,0,0,1-10.234-22.449,171.153,171.153,0,0,1-7.428-27.115,307.965,307.965,0,0,1-4.524-36.529c-1.015-14.273-1.53-30.907-1.53-50.694V49.042c0-19.787.515-36.421,1.53-50.694a307.965,307.965,0,0,1,4.524-36.529A171.153,171.153,0,0,1,132.538-65.3a175.985,175.985,0,0,1,10.234-22.449,167.173,167.173,0,0,1,12.946-20.519,160.12,160.12,0,0,1,15.567-18.09,159.927,159.927,0,0,1,18.088-15.565,167.236,167.236,0,0,1,20.519-12.948,176.327,176.327,0,0,1,22.45-10.234,171.154,171.154,0,0,1,27.115-7.428,307.981,307.981,0,0,1,36.528-4.524C310.259-178.068,326.893-178.583,346.68-178.583Z"
        transform="translate(70.345 367.983)" fill="none" stroke="#95b9ff" stroke-linecap="round"
        stroke-linejoin="round" stroke-width="3" stroke-dasharray="0 14" fill-rule="evenodd" opacity="0.52"/>
      <path
        d="M351.351-195.591H475.058c21.672,0,39.891.565,55.524,1.675a337.606,337.606,0,0,1,40.009,4.957,187.442,187.442,0,0,1,29.695,8.134,192.883,192.883,0,0,1,24.588,11.209,183.009,183.009,0,0,1,22.472,14.181,174.993,174.993,0,0,1,19.813,17.048,175.287,175.287,0,0,1,17.048,19.811A183.222,183.222,0,0,1,698.387-96.1,193.1,193.1,0,0,1,709.6-71.513a187.4,187.4,0,0,1,8.134,29.695A337.3,337.3,0,0,1,722.686-1.81c1.112,15.632,1.675,33.852,1.675,55.523V177.421c0,21.671-.563,39.891-1.675,55.523a337.3,337.3,0,0,1-4.956,40.009,187.4,187.4,0,0,1-8.134,29.7,193.1,193.1,0,0,1-11.209,24.588,183.219,183.219,0,0,1-14.181,22.474,174.754,174.754,0,0,1-36.86,36.859,183.009,183.009,0,0,1-22.472,14.181,192.883,192.883,0,0,1-24.588,11.209,187.442,187.442,0,0,1-29.695,8.134,337.606,337.606,0,0,1-40.009,4.957c-15.633,1.11-33.852,1.675-55.524,1.675H351.351c-21.672,0-39.891-.565-55.523-1.675a337.6,337.6,0,0,1-40.009-4.957,187.466,187.466,0,0,1-29.7-8.134,192.96,192.96,0,0,1-24.587-11.209,183.028,183.028,0,0,1-22.474-14.181A174.856,174.856,0,0,1,142.2,349.71a183.015,183.015,0,0,1-14.179-22.474,192.662,192.662,0,0,1-11.209-24.588,187.4,187.4,0,0,1-8.134-29.7,337.609,337.609,0,0,1-4.957-40.009c-1.11-15.632-1.675-33.852-1.675-55.523V53.713c0-21.671.565-39.891,1.675-55.523a337.61,337.61,0,0,1,4.957-40.009,187.4,187.4,0,0,1,8.134-29.695A192.662,192.662,0,0,1,128.023-96.1,183.017,183.017,0,0,1,142.2-118.576a175.292,175.292,0,0,1,17.049-19.811,175.12,175.12,0,0,1,19.811-17.048,183.028,183.028,0,0,1,22.474-14.181,192.96,192.96,0,0,1,24.587-11.209,187.466,187.466,0,0,1,29.7-8.134,337.6,337.6,0,0,1,40.009-4.957C311.46-195.026,329.678-195.591,351.351-195.591Z"
        transform="translate(60.295 357.933)" fill="none" stroke="#95b9ff" stroke-linecap="round"
        stroke-linejoin="round" stroke-width="3" stroke-dasharray="0 14" fill-rule="evenodd" opacity="0.46"/>
      <path
        d="M356.021-212.6H490.486c23.557,0,43.36.613,60.352,1.82a366.531,366.531,0,0,1,43.486,5.388,203.556,203.556,0,0,1,32.279,8.842,209.519,209.519,0,0,1,26.726,12.183,199.164,199.164,0,0,1,24.428,15.414,190.331,190.331,0,0,1,21.534,18.53,190.328,190.328,0,0,1,18.53,21.534,198.93,198.93,0,0,1,15.414,24.428,209.518,209.518,0,0,1,12.183,26.726,203.726,203.726,0,0,1,8.842,32.279,366.539,366.539,0,0,1,5.388,43.486c1.207,16.992,1.82,36.795,1.82,60.351V192.849c0,23.556-.612,43.359-1.82,60.351a366.539,366.539,0,0,1-5.388,43.486,203.727,203.727,0,0,1-8.842,32.279,209.517,209.517,0,0,1-12.183,26.726,198.93,198.93,0,0,1-15.414,24.428,190.006,190.006,0,0,1-40.064,40.064A199.164,199.164,0,0,1,653.329,435.6,209.519,209.519,0,0,1,626.6,447.779a203.556,203.556,0,0,1-32.279,8.842,366.531,366.531,0,0,1-43.486,5.388c-16.992,1.207-36.795,1.82-60.352,1.82H356.021c-23.556,0-43.359-.613-60.351-1.82a366.563,366.563,0,0,1-43.488-5.388,203.534,203.534,0,0,1-32.277-8.842A209.419,209.419,0,0,1,193.179,435.6a198.926,198.926,0,0,1-24.428-15.414,189.965,189.965,0,0,1-40.066-40.064,198.915,198.915,0,0,1-15.412-24.428,209.739,209.739,0,0,1-12.184-26.726,203.9,203.9,0,0,1-8.842-32.279A366.911,366.911,0,0,1,86.861,253.2c-1.207-16.992-1.822-36.795-1.822-60.351V58.383c0-23.556.614-43.359,1.822-60.351a366.911,366.911,0,0,1,5.387-43.486,203.9,203.9,0,0,1,8.842-32.279,209.74,209.74,0,0,1,12.184-26.726,198.915,198.915,0,0,1,15.412-24.428,190.493,190.493,0,0,1,18.53-21.534,190.486,190.486,0,0,1,21.535-18.53,198.926,198.926,0,0,1,24.428-15.414,209.419,209.419,0,0,1,26.726-12.183,203.534,203.534,0,0,1,32.277-8.842,366.563,366.563,0,0,1,43.488-5.388C312.662-211.986,332.465-212.6,356.021-212.6Z"
        transform="translate(50.246 347.885)" fill="none" stroke="#95b9ff" stroke-linecap="round"
        stroke-linejoin="round" stroke-width="3" stroke-dasharray="0 14" fill-rule="evenodd" opacity="0.4"/>
      <path
        d="M360.692-229.606H505.914c25.441,0,46.829.662,65.181,1.966a396.2,396.2,0,0,1,46.965,5.818,220.2,220.2,0,0,1,34.861,9.55,226.376,226.376,0,0,1,28.865,13.158,215.057,215.057,0,0,1,26.381,16.647,205.531,205.531,0,0,1,23.257,20.011A205.7,205.7,0,0,1,751.436-139.2a215.046,215.046,0,0,1,16.647,26.381,226.264,226.264,0,0,1,13.158,28.865,220.207,220.207,0,0,1,9.55,34.861,396.172,396.172,0,0,1,5.818,46.965c1.3,18.352,1.966,39.738,1.966,65.181v145.22c0,25.443-.662,46.829-1.966,65.181a396.172,396.172,0,0,1-5.818,46.965,220.207,220.207,0,0,1-9.55,34.86,226.263,226.263,0,0,1-13.158,28.865,215.044,215.044,0,0,1-16.647,26.381,205.117,205.117,0,0,1-43.27,43.27,215.057,215.057,0,0,1-26.381,16.647A226.372,226.372,0,0,1,652.92,483.6a220.2,220.2,0,0,1-34.861,9.55,396.2,396.2,0,0,1-46.965,5.818c-18.352,1.3-39.74,1.966-65.181,1.966H360.692c-25.441,0-46.829-.662-65.179-1.966a396.158,396.158,0,0,1-46.965-5.818,220.154,220.154,0,0,1-34.861-9.55,226.272,226.272,0,0,1-28.865-13.158A214.813,214.813,0,0,1,158.441,453.8a205.072,205.072,0,0,1-43.271-43.27,215.236,215.236,0,0,1-16.645-26.381,226.267,226.267,0,0,1-13.158-28.865,219.861,219.861,0,0,1-9.55-34.86A395.832,395.832,0,0,1,70,273.456c-1.3-18.352-1.968-39.738-1.968-65.181V63.055c0-25.443.663-46.829,1.968-65.181a395.832,395.832,0,0,1,5.818-46.965,219.861,219.861,0,0,1,9.55-34.861,226.269,226.269,0,0,1,13.158-28.865A215.238,215.238,0,0,1,115.17-139.2a205.857,205.857,0,0,1,20.013-23.258,205.684,205.684,0,0,1,23.258-20.011,214.814,214.814,0,0,1,26.381-16.647,226.276,226.276,0,0,1,28.865-13.158,220.157,220.157,0,0,1,34.861-9.55,396.164,396.164,0,0,1,46.965-5.818C313.863-228.944,335.251-229.606,360.692-229.606Z"
        transform="translate(40.197 337.835)" fill="none" stroke="#95b9ff" stroke-linecap="round"
        stroke-linejoin="round" stroke-width="3" stroke-dasharray="0 14" fill-rule="evenodd" opacity="0.34"/>
      <path
        d="M365.362-246.614H521.341c27.326,0,50.3.711,70.009,2.113a425.173,425.173,0,0,1,50.445,6.249A236.347,236.347,0,0,1,679.237-228a243.448,243.448,0,0,1,31,14.133,230.756,230.756,0,0,1,28.335,17.88,221.037,221.037,0,0,1,24.981,21.494,221.034,221.034,0,0,1,21.494,24.981,230.762,230.762,0,0,1,17.88,28.335,243.456,243.456,0,0,1,14.133,31,236.343,236.343,0,0,1,10.256,37.442,425.18,425.18,0,0,1,6.249,50.445c1.4,19.711,2.113,42.683,2.113,70.009V223.7c0,27.326-.711,50.3-2.113,70.009a425.18,425.18,0,0,1-6.249,50.445A236.344,236.344,0,0,1,817.063,381.6a243.456,243.456,0,0,1-14.133,31,230.759,230.759,0,0,1-17.88,28.335,220.228,220.228,0,0,1-46.475,46.475,230.752,230.752,0,0,1-28.335,17.88,243.452,243.452,0,0,1-31,14.133,236.353,236.353,0,0,1-37.442,10.256,425.167,425.167,0,0,1-50.445,6.249c-19.711,1.4-42.683,2.113-70.009,2.113H365.362c-27.325,0-50.3-.711-70.007-2.113a425.125,425.125,0,0,1-50.445-6.249,236.309,236.309,0,0,1-37.442-10.256,243.356,243.356,0,0,1-31-14.133,230.634,230.634,0,0,1-28.335-17.88,220.283,220.283,0,0,1-46.477-46.475A230.941,230.941,0,0,1,83.775,412.6a243.23,243.23,0,0,1-14.133-31,236.178,236.178,0,0,1-10.256-37.442,425.479,425.479,0,0,1-6.25-50.445c-1.4-19.711-2.111-42.683-2.111-70.009V67.726c0-27.326.711-50.3,2.111-70.009a425.479,425.479,0,0,1,6.25-50.445A236.178,236.178,0,0,1,69.642-90.17a243.23,243.23,0,0,1,14.133-31,230.944,230.944,0,0,1,17.878-28.335,221.047,221.047,0,0,1,21.5-24.981,220.9,220.9,0,0,1,24.981-21.494,230.638,230.638,0,0,1,28.335-17.88,243.352,243.352,0,0,1,31-14.133,236.3,236.3,0,0,1,37.442-10.256,425.13,425.13,0,0,1,50.445-6.249C315.065-245.9,338.037-246.614,365.362-246.614Z"
        transform="translate(30.148 327.786)" fill="none" stroke="#95b9ff" stroke-linecap="round"
        stroke-linejoin="round" stroke-width="3" stroke-dasharray="0 14" fill-rule="evenodd" opacity="0.28"/>
      <path
        d="M370.034-263.622H536.769c29.21,0,53.766.76,74.836,2.257a454.365,454.365,0,0,1,53.924,6.682,252.633,252.633,0,0,1,40.026,10.963,260.09,260.09,0,0,1,33.139,15.108,246.554,246.554,0,0,1,30.29,19.113,236.094,236.094,0,0,1,26.7,22.977,236.255,236.255,0,0,1,22.977,26.7,246.667,246.667,0,0,1,19.113,30.288,260.211,260.211,0,0,1,15.108,33.141,252.584,252.584,0,0,1,10.963,40.026A454.7,454.7,0,0,1,870.53-2.441c1.5,21.071,2.257,45.626,2.257,74.837V239.131c0,29.211-.76,53.766-2.257,74.837a454.7,454.7,0,0,1-6.682,53.922,252.584,252.584,0,0,1-10.963,40.026,260.213,260.213,0,0,1-15.108,33.141,246.665,246.665,0,0,1-19.113,30.288,235.432,235.432,0,0,1-49.681,49.681,246.551,246.551,0,0,1-30.29,19.113,260.09,260.09,0,0,1-33.139,15.108,252.8,252.8,0,0,1-40.026,10.964,454.724,454.724,0,0,1-53.924,6.68c-21.069,1.5-45.626,2.257-74.836,2.257H370.034c-29.211,0-53.766-.76-74.837-2.257a454.808,454.808,0,0,1-53.924-6.68,252.778,252.778,0,0,1-40.024-10.964,260.211,260.211,0,0,1-33.141-15.108,246.792,246.792,0,0,1-30.29-19.113,235.531,235.531,0,0,1-49.681-49.681,246.836,246.836,0,0,1-19.111-30.288,259.991,259.991,0,0,1-15.108-33.141,252.753,252.753,0,0,1-10.964-40.026,454.734,454.734,0,0,1-6.68-53.922c-1.5-21.071-2.257-45.626-2.257-74.837V72.4c0-29.211.76-53.766,2.257-74.837a454.735,454.735,0,0,1,6.68-53.922A252.753,252.753,0,0,1,53.918-96.389,259.989,259.989,0,0,1,69.026-129.53a246.839,246.839,0,0,1,19.111-30.288,236.257,236.257,0,0,1,22.978-26.7,236.209,236.209,0,0,1,26.7-22.977,246.8,246.8,0,0,1,30.29-19.113,260.211,260.211,0,0,1,33.141-15.108,252.612,252.612,0,0,1,40.024-10.963,454.45,454.45,0,0,1,53.924-6.682C316.268-262.862,340.823-263.622,370.034-263.622Z"
        transform="translate(20.099 317.737)" fill="none" stroke="#95b9ff" stroke-linecap="round"
        stroke-linejoin="round" stroke-width="3" stroke-dasharray="0 14" fill-rule="evenodd" opacity="0.22"/>
      <path
        d="M374.7-280.63H552.2c31.095,0,57.234.81,79.664,2.4a484.051,484.051,0,0,1,57.4,7.111,268.988,268.988,0,0,1,42.606,11.671,276.657,276.657,0,0,1,35.279,16.084,262.521,262.521,0,0,1,32.245,20.346,251.423,251.423,0,0,1,28.426,24.459,251.411,251.411,0,0,1,24.459,28.425,262.819,262.819,0,0,1,20.346,32.244,276.508,276.508,0,0,1,16.082,35.279A268.881,268.881,0,0,1,900.379-60,484.033,484.033,0,0,1,907.49-2.6c1.594,22.431,2.4,48.571,2.4,79.665V254.559c0,31.095-.81,57.234-2.4,79.664a484.022,484.022,0,0,1-7.111,57.4,268.881,268.881,0,0,1-11.672,42.608,276.509,276.509,0,0,1-16.082,35.279,262.816,262.816,0,0,1-20.346,32.244,250.726,250.726,0,0,1-52.885,52.885,262.521,262.521,0,0,1-32.245,20.346A276.651,276.651,0,0,1,731.87,591.07a268.994,268.994,0,0,1-42.606,11.671,484.063,484.063,0,0,1-57.4,7.111c-22.43,1.594-48.569,2.4-79.664,2.4H374.7c-31.095,0-57.236-.81-79.665-2.4a483.991,483.991,0,0,1-57.4-7.111A269.064,269.064,0,0,1,195.03,591.07a276.745,276.745,0,0,1-35.279-16.084,262.5,262.5,0,0,1-32.244-20.346,250.784,250.784,0,0,1-52.887-52.885,262.8,262.8,0,0,1-20.344-32.244,276.744,276.744,0,0,1-16.084-35.279,269.066,269.066,0,0,1-11.671-42.608,484.027,484.027,0,0,1-7.111-57.4c-1.594-22.43-2.4-48.569-2.4-79.664V77.067c0-31.095.81-57.234,2.4-79.665A484.038,484.038,0,0,1,26.523-60a269.066,269.066,0,0,1,11.671-42.608,276.744,276.744,0,0,1,16.084-35.279A262.8,262.8,0,0,1,74.621-170.13a251.6,251.6,0,0,1,24.461-28.425,251.419,251.419,0,0,1,28.425-24.459,262.5,262.5,0,0,1,32.244-20.346,276.751,276.751,0,0,1,35.279-16.084,269.058,269.058,0,0,1,42.608-11.671,483.978,483.978,0,0,1,57.4-7.111C317.469-279.82,343.61-280.63,374.7-280.63Z"
        transform="translate(10.049 307.687)" fill="none" stroke="#95b9ff" stroke-linecap="round"
        stroke-linejoin="round" stroke-width="3" stroke-dasharray="0 14" fill-rule="evenodd" opacity="0.16"/>
      <path
        d="M379.376-297.638h188.25c32.979,0,60.7.859,84.492,2.55A513,513,0,0,1,713-287.546a284.962,284.962,0,0,1,45.188,12.379A293.486,293.486,0,0,1,795.6-258.11a278.6,278.6,0,0,1,34.2,21.578,266.623,266.623,0,0,1,30.148,25.942,266.622,266.622,0,0,1,25.942,30.148,278.607,278.607,0,0,1,21.578,34.2,293.488,293.488,0,0,1,17.057,37.415,285.206,285.206,0,0,1,12.378,45.19,513.322,513.322,0,0,1,7.542,60.882C946.142,21.033,947,48.757,947,81.738v188.25c0,32.98-.859,60.7-2.55,84.492a513.321,513.321,0,0,1-7.542,60.882,285.206,285.206,0,0,1-12.378,45.19,293.488,293.488,0,0,1-17.057,37.415,278.607,278.607,0,0,1-21.578,34.2A265.935,265.935,0,0,1,829.8,588.256a278.6,278.6,0,0,1-34.2,21.578,293.49,293.49,0,0,1-37.417,17.057A284.959,284.959,0,0,1,713,639.27a512.987,512.987,0,0,1-60.882,7.542c-23.788,1.691-51.514,2.55-84.492,2.55H379.376c-32.98,0-60.7-.859-84.494-2.55A513,513,0,0,1,234,639.27a285.03,285.03,0,0,1-45.19-12.378,293.593,293.593,0,0,1-37.417-17.057,278.7,278.7,0,0,1-34.2-21.578A265.992,265.992,0,0,1,61.1,532.166a278.6,278.6,0,0,1-21.577-34.2,293.256,293.256,0,0,1-17.057-37.415,285.033,285.033,0,0,1-12.378-45.19,513.294,513.294,0,0,1-7.544-60.882C.859,330.691,0,302.967,0,269.987V81.738c0-32.98.859-60.7,2.549-84.492a513.295,513.295,0,0,1,7.544-60.882,285.033,285.033,0,0,1,12.378-45.19,293.256,293.256,0,0,1,17.057-37.415,278.594,278.594,0,0,1,21.577-34.2,266.8,266.8,0,0,1,25.944-30.148A266.49,266.49,0,0,1,117.2-236.531a278.7,278.7,0,0,1,34.2-21.578,293.589,293.589,0,0,1,37.417-17.057A285.033,285.033,0,0,1,234-287.546a513.013,513.013,0,0,1,60.881-7.542C318.672-296.779,346.4-297.638,379.376-297.638Z"
        transform="translate(0 297.638)" fill="none" stroke="#95b9ff" stroke-linecap="round" stroke-linejoin="round"
        stroke-width="3" stroke-dasharray="0 14" fill-rule="evenodd" opacity="0.1"/>
    </g>
  </g>
</svg>
