<svg width="15" height="14" viewBox="0 0 15 14" fill="none" xmlns="http://www.w3.org/2000/svg">
<path d="M6.66594 0.925521C6.96745 0.00874689 8.26432 0.00874487 8.56583 0.925519L9.67067 4.2849C9.76989 4.58659 10.0065 4.82321 10.3082 4.92243L13.6676 6.02727C14.5843 6.32878 14.5844 7.62565 13.6676 7.92716L10.3082 9.03199C10.0065 9.13121 9.76989 9.36784 9.67067 9.66952L8.56583 13.0289C8.26432 13.9457 6.96745 13.9457 6.66594 13.0289L5.5611 9.66952C5.46188 9.36784 5.22526 9.13121 4.92358 9.03199L1.56419 7.92716C0.647419 7.62565 0.647417 6.32878 1.56419 6.02727L4.92357 4.92243C5.22526 4.82321 5.46188 4.58659 5.5611 4.2849L6.66594 0.925521Z" fill="#75E0A7"/>
</svg>
