<svg width="20" height="21" viewBox="0 0 20 21" fill="none" xmlns="http://www.w3.org/2000/svg">
<path d="M9.13035 1.37669C9.43186 0.459916 10.7287 0.459917 11.0302 1.37669L12.8726 6.97859C12.9718 7.28028 13.2084 7.5169 13.5101 7.61611L19.112 9.45847C20.0288 9.75999 20.0288 11.0569 19.112 11.3584L13.5101 13.2007C13.2084 13.2999 12.9718 13.5366 12.8726 13.8382L11.0302 19.4401C10.7287 20.3569 9.43186 20.3569 9.13035 19.4401L7.28799 13.8382C7.18877 13.5366 6.95215 13.2999 6.65046 13.2007L1.04857 11.3584C0.131791 11.0569 0.131792 9.75998 1.04857 9.45847L6.65046 7.61611C6.95215 7.5169 7.18877 7.28027 7.28799 6.97859L9.13035 1.37669Z" fill="#17B26A"/>
</svg>
