<svg width="15" height="14" viewBox="0 0 15 14" fill="none" xmlns="http://www.w3.org/2000/svg">
<path d="M6.61516 0.982162C6.91667 0.0653875 8.21354 0.0653855 8.51505 0.98216L9.61989 4.34154C9.7191 4.64323 9.95573 4.87985 10.2574 4.97907L13.6168 6.08391C14.5336 6.38542 14.5336 7.68229 13.6168 7.9838L10.2574 9.08864C9.95573 9.18785 9.7191 9.42448 9.61989 9.72616L8.51505 13.0855C8.21354 14.0023 6.91667 14.0023 6.61516 13.0855L5.51032 9.72616C5.4111 9.42448 5.17448 9.18785 4.87279 9.08864L1.51341 7.9838C0.596637 7.68229 0.596635 6.38542 1.51341 6.08391L4.87279 4.97907C5.17448 4.87985 5.4111 4.64323 5.51032 4.34154L6.61516 0.982162Z" fill="#A9EFC5"/>
</svg>
