<svg width="12" height="12" viewBox="0 0 12 12" fill="none" xmlns="http://www.w3.org/2000/svg">
<path d="M5.35674 0.933331C5.65825 0.016556 6.95512 0.0165583 7.25663 0.933333L8.06646 3.39571C8.16568 3.6974 8.4023 3.93402 8.70398 4.03324L11.1664 4.84307C12.0831 5.14458 12.0831 6.44145 11.1664 6.74296L8.70398 7.55278C8.4023 7.652 8.16568 7.88863 8.06646 8.19031L7.25663 10.6527C6.95512 11.5695 5.65825 11.5695 5.35674 10.6527L4.54691 8.19031C4.44769 7.88862 4.21107 7.652 3.90938 7.55278L1.447 6.74295C0.530228 6.44144 0.53023 5.14458 1.447 4.84307L3.90938 4.03324C4.21107 3.93402 4.44769 3.6974 4.54691 3.39571L5.35674 0.933331Z" fill="#17B26A"/>
</svg>
