<svg width="12" height="12" viewBox="0 0 12 12" fill="none" xmlns="http://www.w3.org/2000/svg">
<path d="M4.86846 0.888409C5.16997 -0.0283658 6.46684 -0.0283636 6.76835 0.888411L7.57818 3.35079C7.67739 3.65248 7.91402 3.8891 8.2157 3.98831L10.6781 4.79815C11.5949 5.09966 11.5949 6.39652 10.6781 6.69803L8.2157 7.50786C7.91401 7.60708 7.67739 7.8437 7.57818 8.14539L6.76834 10.6078C6.46683 11.5245 5.16997 11.5245 4.86846 10.6078L4.05863 8.14539C3.95941 7.8437 3.72279 7.60708 3.4211 7.50786L0.958721 6.69803C0.0419466 6.39652 0.0419489 5.09965 0.958724 4.79814L3.4211 3.98831C3.72279 3.8891 3.95941 3.65247 4.05863 3.35079L4.86846 0.888409Z" fill="#A9EFC5"/>
</svg>
