<svg xmlns="http://www.w3.org/2000/svg" viewBox="0 0 1920 1080" class="medical-background">
  <defs>
    <linearGradient id="bgGradient" x1="0%" y1="0%" x2="100%" y2="100%">
      <stop offset="0%" style="stop-color:#f8fbff;stop-opacity:1" />
      <stop offset="50%" style="stop-color:#e3f2fd;stop-opacity:1" />
      <stop offset="100%" style="stop-color:#bbdefb;stop-opacity:1" />
    </linearGradient>
    <linearGradient id="moleculeGradient" x1="0%" y1="0%" x2="100%" y2="100%">
      <stop offset="0%" style="stop-color:#2196f3;stop-opacity:0.1" />
      <stop offset="100%" style="stop-color:#1976d2;stop-opacity:0.05" />
    </linearGradient>
  </defs>
  
  <!-- Background -->
  <rect width="100%" height="100%" fill="url(#bgGradient)"/>
  
  <!-- DNA Helix Pattern -->
  <g opacity="0.08">
    <path d="M100 200 Q200 150 300 200 T500 200" stroke="#1976d2" stroke-width="3" fill="none"/>
    <path d="M100 220 Q200 270 300 220 T500 220" stroke="#1976d2" stroke-width="3" fill="none"/>
    <circle cx="150" cy="185" r="4" fill="#1976d2"/>
    <circle cx="250" cy="215" r="4" fill="#1976d2"/>
    <circle cx="350" cy="185" r="4" fill="#1976d2"/>
    <circle cx="450" cy="215" r="4" fill="#1976d2"/>
  </g>
  
  <!-- Molecular Structure -->
  <g opacity="0.06" transform="translate(1400, 100)">
    <circle cx="0" cy="0" r="20" fill="#4caf50"/>
    <circle cx="40" cy="30" r="15" fill="#2196f3"/>
    <circle cx="-30" cy="40" r="12" fill="#ff9800"/>
    <circle cx="20" cy="-35" r="18" fill="#9c27b0"/>
    <line x1="0" y1="0" x2="40" y2="30" stroke="#666" stroke-width="2"/>
    <line x1="0" y1="0" x2="-30" y2="40" stroke="#666" stroke-width="2"/>
    <line x1="0" y1="0" x2="20" y2="-35" stroke="#666" stroke-width="2"/>
  </g>
  
  <!-- Medical Cross Pattern -->
  <g opacity="0.04" transform="translate(200, 800)">
    <rect x="-5" y="-20" width="10" height="40" fill="#f44336"/>
    <rect x="-20" y="-5" width="40" height="10" fill="#f44336"/>
  </g>
  
  <!-- Heartbeat Line -->
  <g opacity="0.05" transform="translate(0, 900)">
    <path d="M0 0 L100 0 L120 -30 L140 60 L160 -40 L180 0 L300 0" stroke="#e91e63" stroke-width="3" fill="none"/>
  </g>
  
  <!-- Cell Structure -->
  <g opacity="0.04" transform="translate(1600, 800)">
    <circle cx="0" cy="0" r="50" fill="none" stroke="#00bcd4" stroke-width="2"/>
    <circle cx="0" cy="0" r="15" fill="#00bcd4"/>
    <ellipse cx="-20" cy="10" rx="8" ry="4" fill="#4caf50"/>
    <ellipse cx="15" cy="-15" rx="6" ry="3" fill="#ff9800"/>
  </g>
  
  <!-- Floating Particles -->
  <g opacity="0.03">
    <circle cx="300" cy="150" r="3" fill="#2196f3"/>
    <circle cx="800" cy="300" r="2" fill="#4caf50"/>
    <circle cx="1200" cy="200" r="4" fill="#ff9800"/>
    <circle cx="600" cy="700" r="2" fill="#9c27b0"/>
    <circle cx="1500" cy="600" r="3" fill="#f44336"/>
  </g>
</svg>