<svg xmlns="http://www.w3.org/2000/svg" width="35.565" height="44.89" viewBox="0 0 35.565 44.89">
  <g id="surface1" transform="translate(-0.5)">
    <path id="Path_118" data-name="Path 118" d="M24.691.347A1.086,1.086,0,0,0,23.91,0H6.4A5.924,5.924,0,0,0,.5,5.888V39A5.924,5.924,0,0,0,6.4,44.89H30.166A5.924,5.924,0,0,0,36.065,39V12.708a1.167,1.167,0,0,0-.314-.759Zm.314,3.481L32.411,11.6H27.6a2.582,2.582,0,0,1-2.592-2.581Zm5.161,38.894H6.4A3.756,3.756,0,0,1,2.669,39V5.888A3.756,3.756,0,0,1,6.4,2.169H22.837V9.021a4.744,4.744,0,0,0,4.76,4.749h6.3V39A3.749,3.749,0,0,1,30.166,42.722Zm0,0" fill="#036af5"/>
    <path id="Path_119" data-name="Path 119" d="M108.1,401.934H90.256a1.084,1.084,0,1,0,0,2.169h17.859a1.084,1.084,0,1,0-.011-2.169Zm0,0" transform="translate(-80.897 -366.694)" fill="#036af5"/>
    <path id="Path_120" data-name="Path 120" d="M125.262,186.713a1.076,1.076,0,0,0,1.583,0l6.354-6.82a1.082,1.082,0,1,0-1.583-1.475l-4.478,4.8v-11.84a1.084,1.084,0,0,0-2.169,0v11.84l-4.467-4.8a1.082,1.082,0,0,0-1.583,1.475Zm0,0" transform="translate(-107.771 -155.366)" fill="#036af5"/>
  </g>
</svg>
