<svg xmlns="http://www.w3.org/2000/svg" width="20" height="20" viewBox="0 0 20 20" fill="none">
    <path d="M7.32124 16.5688L7.32116 16.5689C7.41779 16.6425 7.60476 16.7416 7.90147 16.7416C8.16099 16.7416 8.55549 16.6589 9.06649 16.3479L9.07105 16.3451L9.07106 16.3451L11.0609 15.1629C11.0612 15.1627 11.0616 15.1624 11.062 15.1622C11.2549 15.0469 11.4871 15.0166 11.6598 15.0166C11.8324 15.0166 12.0644 15.0468 12.2574 15.1621C12.2578 15.1624 12.2583 15.1626 12.2587 15.1629L14.2483 16.345L7.32124 16.5688ZM7.32124 16.5688L7.31162 16.5618C7.21274 16.4901 7.07012 16.3507 6.97917 16.0982C6.88792 15.8449 6.83481 15.4392 6.98018 14.813L6.98023 14.8128L7.45451 12.7658M7.32124 16.5688L7.45451 12.7658M7.45451 12.7658C7.45466 12.7652 7.45479 12.7646 7.45493 12.764C7.50362 12.5574 7.4677 12.3392 7.4242 12.1856C7.37983 12.0289 7.2968 11.8312 7.15789 11.683L7.15237 11.6771L7.14667 11.6714L5.48835 10.0131C5.10931 9.63404 4.96254 9.30843 4.90958 9.06759C4.85615 8.82461 4.89023 8.63106 4.92888 8.50683C4.96567 8.38859 5.04814 8.21276 5.23274 8.04573C5.41558 7.88031 5.72431 7.70015 6.25099 7.60972M7.45451 12.7658L6.25099 7.60972M6.25099 7.60972L8.37321 7.26018C8.56953 7.22861 8.75064 7.11913 8.867 7.03284C8.98104 6.94827 9.13888 6.80748 9.2256 6.62804L10.3987 4.28191C10.6457 3.78795 10.9134 3.54055 11.1278 3.41307C11.3437 3.28473 11.5386 3.2583 11.6681 3.2583C11.7977 3.2583 11.9926 3.28473 12.2084 3.41307C12.4228 3.54055 12.6906 3.78795 12.9376 4.28191L14.1126 6.63191L14.1125 6.63197L14.1179 6.64225C14.205 6.80683 14.3526 6.943 14.4702 7.03122C14.5843 7.11676 14.7644 7.22827 14.9632 7.2602C14.9638 7.2603 14.9645 7.26041 14.9651 7.26051L17.0869 7.60998L17.087 7.61001C17.6126 7.6964 17.9203 7.87614 18.1027 8.04188C18.2871 8.20945 18.3702 8.38727 18.4074 8.50683C18.446 8.63106 18.4801 8.82461 18.4267 9.06759C18.3737 9.30843 18.2269 9.63404 17.8479 10.0131L16.1896 11.6714C16.0391 11.8218 15.9549 12.0298 15.9117 12.1836C15.8685 12.3377 15.8327 12.5575 15.8813 12.7637C15.8814 12.7644 15.8816 12.7651 15.8817 12.7658L16.3559 14.8124C16.3559 14.8125 16.356 14.8126 16.356 14.8127C16.5016 15.4438 16.4481 15.8493 16.3572 16.1009C16.2668 16.3512 16.125 16.489 16.0246 16.5618C15.9214 16.6367 15.7461 16.7298 15.4804 16.7399C15.2128 16.7501 14.8093 16.6778 14.2485 16.3451L6.25099 7.60972ZM9.44591 6.74303L9.4459 6.74303L9.44444 6.74598C9.26689 7.107 8.81362 7.44066 8.41212 7.50658L8.41187 7.50662L6.28688 7.85662L6.28687 7.85659L6.28174 7.85749C6.00154 7.90665 5.76703 7.98777 5.58283 8.09765C5.41002 8.20073 5.22975 8.36148 5.15756 8.5925C5.08633 8.82043 5.13944 9.05324 5.22194 9.23811C5.30938 9.43405 5.45463 9.63526 5.65623 9.83686L5.65623 9.83686L7.31458 11.4952C7.45549 11.6361 7.58117 11.8563 7.65561 12.1131C7.73001 12.3698 7.74117 12.6212 7.69751 12.8129C7.69747 12.8131 7.69742 12.8133 7.69737 12.8136L7.22353 14.8585C7.22339 14.8592 7.22324 14.8598 7.2231 14.8604C7.14287 15.1962 7.12205 15.4805 7.14573 15.7114C7.15756 15.8268 7.1814 15.9375 7.22043 16.0377C7.25617 16.1294 7.31962 16.251 7.43483 16.3453L7.44585 16.3543L7.45736 16.3627C7.58817 16.4578 7.73349 16.4827 7.82977 16.4894C7.93815 16.4969 8.05177 16.486 8.16527 16.4623C8.39236 16.4148 8.65716 16.308 8.95099 16.1284L10.9477 14.947L10.9494 14.9459C11.3511 14.7061 11.9944 14.7082 12.384 14.9442L12.3877 14.9465L14.3794 16.1298L14.3816 16.1311C14.678 16.3052 14.9426 16.4105 15.1675 16.4587C15.2794 16.4826 15.3922 16.4948 15.5001 16.4886C15.595 16.4832 15.7443 16.4605 15.8789 16.3627C16.0102 16.2672 16.0785 16.1362 16.1145 16.0457C16.1548 15.9445 16.1787 15.8328 16.1905 15.7176C16.2142 15.4866 16.1933 15.2003 16.1133 14.8611C16.1132 14.8607 16.1132 14.8604 16.1131 14.8601L15.6392 12.815C15.6391 12.8146 15.639 12.8142 15.6389 12.8138C15.5432 12.3861 15.7125 11.7985 16.0182 11.4986L16.0182 11.4986L16.0217 11.4952L17.68 9.83686L17.3265 9.48331L17.68 9.83686C17.8834 9.63351 18.0281 9.42975 18.1149 9.23359C18.1942 9.05458 18.2531 8.81559 18.1758 8.58353C18.1022 8.36267 17.9257 8.20505 17.7562 8.10243C17.573 7.99157 17.3383 7.90729 17.0545 7.85749L17.0545 7.85747L17.0494 7.85662L14.9244 7.50662L14.9241 7.50658C14.5226 7.44066 14.0694 7.107 13.8918 6.74598L13.8918 6.74597L13.8903 6.74303L12.7153 4.39302C12.5826 4.12756 12.4319 3.9211 12.2704 3.77408C12.1222 3.639 11.9127 3.5083 11.6681 3.5083C11.4236 3.5083 11.2141 3.639 11.0658 3.77407C10.9044 3.9211 10.7536 4.12756 10.6209 4.39302L9.44591 6.74303ZM6.66797 4.29164H1.66797C1.63782 4.29164 1.60654 4.27935 1.5809 4.25371C1.55525 4.22806 1.54297 4.19678 1.54297 4.16664C1.54297 4.13649 1.55525 4.10521 1.5809 4.07956C1.60654 4.05392 1.63782 4.04164 1.66797 4.04164H6.66797C6.69812 4.04164 6.7294 4.05392 6.75504 4.07956C6.78068 4.10521 6.79297 4.13649 6.79297 4.16664C6.79297 4.19678 6.78068 4.22806 6.75504 4.25371C6.7294 4.27935 6.69812 4.29164 6.66797 4.29164ZM4.16797 15.9583H1.66797C1.63782 15.9583 1.60654 15.946 1.5809 15.9204C1.55525 15.8947 1.54297 15.8635 1.54297 15.8333C1.54297 15.8032 1.55525 15.7719 1.5809 15.7462C1.60654 15.7206 1.63782 15.7083 1.66797 15.7083H4.16797C4.19812 15.7083 4.2294 15.7206 4.25504 15.7462C4.28068 15.7719 4.29297 15.8032 4.29297 15.8333C4.29297 15.8635 4.28068 15.8947 4.25504 15.9204C4.2294 15.946 4.19812 15.9583 4.16797 15.9583ZM2.5013 10.125H1.66797C1.63782 10.125 1.60654 10.1127 1.5809 10.087C1.55525 10.0614 1.54297 10.0301 1.54297 9.99997C1.54297 9.96982 1.55525 9.93854 1.5809 9.9129C1.60654 9.88725 1.63782 9.87497 1.66797 9.87497H2.5013C2.53145 9.87497 2.56273 9.88725 2.58837 9.9129C2.61402 9.93854 2.6263 9.96982 2.6263 9.99997C2.6263 10.0301 2.61402 10.0614 2.58837 10.087C2.56273 10.1127 2.53145 10.125 2.5013 10.125Z" fill="#292D32" stroke="url(#paint0_linear_3574_56756)"/>
    <defs>
        <linearGradient id="paint0_linear_3574_56756" x1="1.00131" y1="17" x2="19.0013" y2="2.99997" gradientUnits="userSpaceOnUse">
            <stop stop-color="#6690FF"/>
            <stop offset="1" stop-color="#F9717D"/>
        </linearGradient>
    </defs>
</svg>