<svg width="208" height="43" viewBox="0 0 208 43" fill="none" xmlns="http://www.w3.org/2000/svg">
<path d="M10 0H26L16 43H0L10 0Z" fill="url(#paint0_linear_124_57)"/>
<path d="M62 0H78L68 43H52L62 0Z" fill="url(#paint1_linear_124_57)"/>
<path d="M114 0H130L120 43H104L114 0Z" fill="url(#paint2_linear_124_57)"/>
<path d="M166 0H182L172 43H156L166 0Z" fill="url(#paint3_linear_124_57)"/>
<path d="M36 0H52L42 43H26L36 0Z" fill="url(#paint4_linear_124_57)"/>
<path d="M88 0H104L94 43H78L88 0Z" fill="url(#paint5_linear_124_57)"/>
<path d="M140 0H156L146 43H130L140 0Z" fill="url(#paint6_linear_124_57)"/>
<path d="M192 0H208L198 43H182L192 0Z" fill="url(#paint7_linear_124_57)"/>
<defs>
<linearGradient id="paint0_linear_124_57" x1="13" y1="0" x2="13" y2="43" gradientUnits="userSpaceOnUse">
<stop stop-color="#FFBC45"/>
<stop offset="1" stop-color="#D28905"/>
</linearGradient>
<linearGradient id="paint1_linear_124_57" x1="65" y1="0" x2="65" y2="43" gradientUnits="userSpaceOnUse">
<stop stop-color="#FFBC45"/>
<stop offset="1" stop-color="#D28905"/>
</linearGradient>
<linearGradient id="paint2_linear_124_57" x1="117" y1="0" x2="117" y2="43" gradientUnits="userSpaceOnUse">
<stop stop-color="#FFBC45"/>
<stop offset="1" stop-color="#D28905"/>
</linearGradient>
<linearGradient id="paint3_linear_124_57" x1="169" y1="0" x2="169" y2="43" gradientUnits="userSpaceOnUse">
<stop stop-color="#FFBC45"/>
<stop offset="1" stop-color="#D28905"/>
</linearGradient>
<linearGradient id="paint4_linear_124_57" x1="39" y1="0" x2="39" y2="43" gradientUnits="userSpaceOnUse">
<stop stop-color="#FFBC45"/>
<stop offset="1" stop-color="#D28905"/>
</linearGradient>
<linearGradient id="paint5_linear_124_57" x1="91" y1="0" x2="91" y2="43" gradientUnits="userSpaceOnUse">
<stop stop-color="#FFBC45"/>
<stop offset="1" stop-color="#D28905"/>
</linearGradient>
<linearGradient id="paint6_linear_124_57" x1="143" y1="0" x2="143" y2="43" gradientUnits="userSpaceOnUse">
<stop stop-color="#FFBC45"/>
<stop offset="1" stop-color="#D28905"/>
</linearGradient>
<linearGradient id="paint7_linear_124_57" x1="195" y1="0" x2="195" y2="43" gradientUnits="userSpaceOnUse">
<stop stop-color="#FFBC45"/>
<stop offset="1" stop-color="#D28905"/>
</linearGradient>
</defs>
</svg>
